<svg xmlns="http://www.w3.org/2000/svg" width="64" height="64" viewBox="0 0 64 64"><defs><linearGradient id="bg" x1="0" y1="0" x2="1" y2="1"><stop offset="0" stop-color="#1d4ed8"/><stop offset="1" stop-color="#e11d48"/></linearGradient><linearGradient id="cr" x1="0" y1="0" x2="1" y2="0"><stop offset="0" stop-color="#1b2445"/><stop offset=".55" stop-color="#26335f"/><stop offset="1" stop-color="#1e2950"/></linearGradient></defs><rect width="64" height="64" rx="16" fill="url(#bg)"/><g transform="translate(0 3)"><path stroke="#fff" stroke-width="2.4" stroke-opacity=".9" fill="url(#cr)" d="M7 39C6 25.5 14.6 14.4 27.6 13.6C40 12.8 49.2 21 51 32.6C51.5 35.6 51.1 38.3 50.2 40C36 42.6 20.6 42.4 7 39Z"/><g fill="none" stroke="#34457a" stroke-width=".9" stroke-linecap="round"><path d="M27.4 13.8C32.6 18.4 35.6 28 36 40.6"/><path d="M27.4 13.8C21.4 18.2 17.4 27.6 16.4 39.8"/></g><circle cx="20" cy="21.6" r="1" fill="#3b4c80"/><circle cx="36.2" cy="19.6" r="1" fill="#3b4c80"/><path stroke="#fff" stroke-width="2.4" stroke-opacity=".9" fill="#151d38" d="M27.2 39.6C37.6 38.4 50 39 58 42.6C61.2 44 60.6 46.6 57.6 47.1C47.6 48.8 36.6 47.6 26.8 43.8C24.8 43 25.2 39.9 27.2 39.6Z"/><path fill="none" stroke="#2c3a68" stroke-width=".9" d="M27.6 40.8C37.6 40 49.4 40.6 57.2 43.8"/><ellipse cx="27.4" cy="13.6" rx="3" ry="1.5" fill="#141b33"/><g fill="none" stroke="#fff" stroke-linecap="round" stroke-linejoin="round" transform="rotate(-9 34 31)"><path d="M29.8 27.2C28.6 25.2 24.6 25.2 23.2 28.4C21.8 31.8 24 34.6 27.4 33.8C28.6 33.5 29.6 32.8 30.4 31.8" stroke-width="2.1"/><path d="M31.6 25.2C33.8 26 35.2 29 36.6 31.6C37.8 33.8 39 35.2 40.8 35.8" stroke-width="2.2"/><path d="M41.4 24.6C39.4 25 37.6 27.4 36.2 29.6C34.6 32 33.2 35 31 36.4C29.8 37.2 28.4 37.2 27.6 36.4" stroke-width="2.2"/><path d="M24 38.8C31 37.4 38.6 37.2 46.6 38" stroke-width="1.1" opacity=".85"/></g></g></svg>
